<svg id="visual" viewBox="0 0 900 675" width="900" height="675" xmlns="http://www.w3.org/2000/svg" xmlns:xlink="http://www.w3.org/1999/xlink" version="1.1"><rect x="0" y="0" width="900" height="675" fill="#101728"></rect><defs><linearGradient id="grad1_0" x1="25%" y1="100%" x2="100%" y2="0%"><stop offset="23.333333333333336%" stop-color="#17d492" stop-opacity="1"></stop><stop offset="76.66666666666666%" stop-color="#17d492" stop-opacity="1"></stop></linearGradient></defs><defs><linearGradient id="grad1_1" x1="25%" y1="100%" x2="100%" y2="0%"><stop offset="23.333333333333336%" stop-color="#17d492" stop-opacity="1"></stop><stop offset="76.66666666666666%" stop-color="#00a39c" stop-opacity="1"></stop></linearGradient></defs><defs><linearGradient id="grad1_2" x1="25%" y1="100%" x2="100%" y2="0%"><stop offset="23.333333333333336%" stop-color="#00708b" stop-opacity="1"></stop><stop offset="76.66666666666666%" stop-color="#00a39c" stop-opacity="1"></stop></linearGradient></defs><defs><linearGradient id="grad1_3" x1="25%" y1="100%" x2="100%" y2="0%"><stop offset="23.333333333333336%" stop-color="#00708b" stop-opacity="1"></stop><stop offset="76.66666666666666%" stop-color="#00405f" stop-opacity="1"></stop></linearGradient></defs><defs><linearGradient id="grad1_4" x1="25%" y1="100%" x2="100%" y2="0%"><stop offset="23.333333333333336%" stop-color="#101728" stop-opacity="1"></stop><stop offset="76.66666666666666%" stop-color="#00405f" stop-opacity="1"></stop></linearGradient></defs><defs><linearGradient id="grad2_0" x1="0%" y1="100%" x2="75%" y2="0%"><stop offset="23.333333333333336%" stop-color="#17d492" stop-opacity="1"></stop><stop offset="76.66666666666666%" stop-color="#17d492" stop-opacity="1"></stop></linearGradient></defs><defs><linearGradient id="grad2_1" x1="0%" y1="100%" x2="75%" y2="0%"><stop offset="23.333333333333336%" stop-color="#00a39c" stop-opacity="1"></stop><stop offset="76.66666666666666%" stop-color="#17d492" stop-opacity="1"></stop></linearGradient></defs><defs><linearGradient id="grad2_2" x1="0%" y1="100%" x2="75%" y2="0%"><stop offset="23.333333333333336%" stop-color="#00a39c" stop-opacity="1"></stop><stop offset="76.66666666666666%" stop-color="#00708b" stop-opacity="1"></stop></linearGradient></defs><defs><linearGradient id="grad2_3" x1="0%" y1="100%" x2="75%" y2="0%"><stop offset="23.333333333333336%" stop-color="#00405f" stop-opacity="1"></stop><stop offset="76.66666666666666%" stop-color="#00708b" stop-opacity="1"></stop></linearGradient></defs><defs><linearGradient id="grad2_4" x1="0%" y1="100%" x2="75%" y2="0%"><stop offset="23.333333333333336%" stop-color="#00405f" stop-opacity="1"></stop><stop offset="76.66666666666666%" stop-color="#101728" stop-opacity="1"></stop></linearGradient></defs><g transform="translate(900, 675)"><path d="M-365.6 0C-322.7 -23.8 -279.8 -47.6 -277.7 -90.2C-275.6 -132.9 -314.3 -194.3 -295.8 -214.9C-277.3 -235.5 -201.6 -215.4 -161.1 -221.7C-120.5 -228 -114.9 -260.7 -93.9 -289.1C-72.9 -317.5 -36.5 -341.6 0 -365.6L0 0Z" fill="#0c2a44"></path><path d="M-292.5 0C-258.2 -19 -223.9 -38.1 -222.2 -72.2C-220.5 -106.3 -251.4 -155.4 -236.6 -171.9C-221.8 -188.4 -161.3 -172.3 -128.8 -177.3C-96.4 -182.4 -92 -208.6 -75.2 -231.3C-58.4 -254 -29.2 -273.3 0 -292.5L0 0Z" fill="#005877"></path><path d="M-219.4 0C-193.6 -14.3 -167.9 -28.6 -166.6 -54.1C-165.4 -79.7 -188.6 -116.6 -177.5 -128.9C-166.4 -141.3 -121 -129.2 -96.6 -133C-72.3 -136.8 -69 -156.4 -56.4 -173.5C-43.8 -190.5 -21.9 -204.9 0 -219.4L0 0Z" fill="#008a97"></path><path d="M-146.2 0C-129.1 -9.5 -111.9 -19 -111.1 -36.1C-110.2 -53.1 -125.7 -77.7 -118.3 -86C-110.9 -94.2 -80.7 -86.2 -64.4 -88.7C-48.2 -91.2 -46 -104.3 -37.6 -115.6C-29.2 -127 -14.6 -136.6 0 -146.2L0 0Z" fill="#00bc9a"></path><path d="M-73.1 0C-64.5 -4.8 -56 -9.5 -55.5 -18C-55.1 -26.6 -62.9 -38.9 -59.2 -43C-55.5 -47.1 -40.3 -43.1 -32.2 -44.3C-24.1 -45.6 -23 -52.1 -18.8 -57.8C-14.6 -63.5 -7.3 -68.3 0 -73.1L0 0Z" fill="#17d492"></path></g><g transform="translate(0, 0)"><path d="M365.6 0C335.9 34 306.3 68 279.6 90.9C253 113.7 229.3 125.4 224.1 162.8C218.9 200.2 232.1 263.3 214.9 295.8C197.8 328.3 150.3 330.1 109.4 336.7C68.5 343.2 34.3 354.4 0 365.6L0 0Z" fill="#0c2a44"></path><path d="M292.5 0C268.8 27.2 245 54.4 223.7 72.7C202.4 91 183.5 100.3 179.3 130.3C175.1 160.2 185.6 210.7 171.9 236.6C158.2 262.6 120.2 264.1 87.5 269.3C54.8 274.6 27.4 283.5 0 292.5L0 0Z" fill="#005877"></path><path d="M219.4 0C201.6 20.4 183.8 40.8 167.8 54.5C151.8 68.2 137.6 75.2 134.5 97.7C131.3 120.1 139.2 158 128.9 177.5C118.7 197 90.2 198.1 65.6 202C41.1 205.9 20.6 212.7 0 219.4L0 0Z" fill="#008a97"></path><path d="M146.3 0C134.4 13.6 122.5 27.2 111.8 36.3C101.2 45.5 91.7 50.2 89.6 65.1C87.5 80.1 92.8 105.3 86 118.3C79.1 131.3 60.1 132.1 43.8 134.7C27.4 137.3 13.7 141.8 0 146.3L0 0Z" fill="#00bc9a"></path><path d="M73.1 0C67.2 6.8 61.3 13.6 55.9 18.2C50.6 22.7 45.9 25.1 44.8 32.6C43.8 40 46.4 52.7 43 59.2C39.6 65.7 30.1 66 21.9 67.3C13.7 68.6 6.9 70.9 0 73.1L0 0Z" fill="#17d492"></path></g></svg>