<svg id="visual" viewBox="0 0 960 540" width="960" height="540" xmlns="http://www.w3.org/2000/svg" xmlns:xlink="http://www.w3.org/1999/xlink" version="1.1"><rect x="0" y="0" width="960" height="540" fill="#101728"></rect><defs><linearGradient id="grad1_0" x1="43.8%" y1="100%" x2="100%" y2="0%"><stop offset="14.444444444444446%" stop-color="#17d492" stop-opacity="1"></stop><stop offset="85.55555555555554%" stop-color="#17d492" stop-opacity="1"></stop></linearGradient></defs><defs><linearGradient id="grad1_1" x1="43.8%" y1="100%" x2="100%" y2="0%"><stop offset="14.444444444444446%" stop-color="#17d492" stop-opacity="1"></stop><stop offset="85.55555555555554%" stop-color="#00a39c" stop-opacity="1"></stop></linearGradient></defs><defs><linearGradient id="grad1_2" x1="43.8%" y1="100%" x2="100%" y2="0%"><stop offset="14.444444444444446%" stop-color="#00708b" stop-opacity="1"></stop><stop offset="85.55555555555554%" stop-color="#00a39c" stop-opacity="1"></stop></linearGradient></defs><defs><linearGradient id="grad1_3" x1="43.8%" y1="100%" x2="100%" y2="0%"><stop offset="14.444444444444446%" stop-color="#00708b" stop-opacity="1"></stop><stop offset="85.55555555555554%" stop-color="#00405f" stop-opacity="1"></stop></linearGradient></defs><defs><linearGradient id="grad1_4" x1="43.8%" y1="100%" x2="100%" y2="0%"><stop offset="14.444444444444446%" stop-color="#101728" stop-opacity="1"></stop><stop offset="85.55555555555554%" stop-color="#00405f" stop-opacity="1"></stop></linearGradient></defs><defs><linearGradient id="grad2_0" x1="0%" y1="100%" x2="56.3%" y2="0%"><stop offset="14.444444444444446%" stop-color="#17d492" stop-opacity="1"></stop><stop offset="85.55555555555554%" stop-color="#17d492" stop-opacity="1"></stop></linearGradient></defs><defs><linearGradient id="grad2_1" x1="0%" y1="100%" x2="56.3%" y2="0%"><stop offset="14.444444444444446%" stop-color="#00a39c" stop-opacity="1"></stop><stop offset="85.55555555555554%" stop-color="#17d492" stop-opacity="1"></stop></linearGradient></defs><defs><linearGradient id="grad2_2" x1="0%" y1="100%" x2="56.3%" y2="0%"><stop offset="14.444444444444446%" stop-color="#00a39c" stop-opacity="1"></stop><stop offset="85.55555555555554%" stop-color="#00708b" stop-opacity="1"></stop></linearGradient></defs><defs><linearGradient id="grad2_3" x1="0%" y1="100%" x2="56.3%" y2="0%"><stop offset="14.444444444444446%" stop-color="#00405f" stop-opacity="1"></stop><stop offset="85.55555555555554%" stop-color="#00708b" stop-opacity="1"></stop></linearGradient></defs><defs><linearGradient id="grad2_4" x1="0%" y1="100%" x2="56.3%" y2="0%"><stop offset="14.444444444444446%" stop-color="#00405f" stop-opacity="1"></stop><stop offset="85.55555555555554%" stop-color="#101728" stop-opacity="1"></stop></linearGradient></defs><g transform="translate(960, 540)"><path d="M-351 0C-321.5 -26.7 -292 -53.3 -288.2 -93.6C-284.3 -133.9 -306.2 -187.9 -284 -206.3C-261.7 -224.7 -195.4 -207.6 -159.9 -220.1C-124.3 -232.6 -119.5 -274.7 -98 -301.5C-76.4 -328.3 -38.2 -339.6 0 -351L0 0Z" fill="#0c2a44"></path><path d="M-280.8 0C-257.2 -21.3 -233.6 -42.7 -230.5 -74.9C-227.5 -107.2 -245 -150.3 -227.2 -165.1C-209.4 -179.8 -156.4 -166 -127.9 -176C-99.5 -186 -95.6 -219.8 -78.4 -241.2C-61.1 -262.6 -30.6 -271.7 0 -280.8L0 0Z" fill="#005877"></path><path d="M-210.6 0C-192.9 -16 -175.2 -32 -172.9 -56.2C-170.6 -80.4 -183.7 -112.7 -170.4 -123.8C-157 -134.8 -117.3 -124.5 -95.9 -132C-74.6 -139.5 -71.7 -164.8 -58.8 -180.9C-45.9 -197 -22.9 -203.8 0 -210.6L0 0Z" fill="#008a97"></path><path d="M-140.4 0C-128.6 -10.7 -116.8 -21.3 -115.3 -37.5C-113.7 -53.6 -122.5 -75.2 -113.6 -82.5C-104.7 -89.9 -78.2 -83 -64 -88C-49.7 -93 -47.8 -109.9 -39.2 -120.6C-30.6 -131.3 -15.3 -135.9 0 -140.4L0 0Z" fill="#00bc9a"></path><path d="M-70.2 0C-64.3 -5.3 -58.4 -10.7 -57.6 -18.7C-56.9 -26.8 -61.2 -37.6 -56.8 -41.3C-52.3 -44.9 -39.1 -41.5 -32 -44C-24.9 -46.5 -23.9 -54.9 -19.6 -60.3C-15.3 -65.7 -7.6 -67.9 0 -70.2L0 0Z" fill="#17d492"></path></g><g transform="translate(0, 0)"><path d="M351 0C312.8 29.2 274.7 58.4 251.1 81.6C227.5 104.7 218.4 121.8 216.8 157.5C215.2 193.3 221.2 247.6 204 280.7C186.7 313.8 146.3 325.7 108.5 333.8C70.6 342 35.3 346.5 0 351L0 0Z" fill="#0c2a44"></path><path d="M280.8 0C250.3 23.4 219.8 46.7 200.9 65.3C182 83.8 174.7 97.4 173.5 126C172.2 154.6 177 198.1 163.2 224.6C149.4 251.1 117.1 260.5 86.8 267.1C56.5 273.6 28.2 277.2 0 280.8L0 0Z" fill="#005877"></path><path d="M210.6 0C187.7 17.5 164.8 35.1 150.6 48.9C136.5 62.8 131 73.1 130.1 94.5C129.1 116 132.7 148.6 122.4 168.4C112 188.3 87.8 195.4 65.1 200.3C42.4 205.2 21.2 207.9 0 210.6L0 0Z" fill="#008a97"></path><path d="M140.4 0C125.1 11.7 109.9 23.4 100.4 32.6C91 41.9 87.4 48.7 86.7 63C86.1 77.3 88.5 99.1 81.6 112.3C74.7 125.5 58.5 130.3 43.4 133.5C28.2 136.8 14.1 138.6 0 140.4L0 0Z" fill="#00bc9a"></path><path d="M70.2 0C62.6 5.8 54.9 11.7 50.2 16.3C45.5 20.9 43.7 24.4 43.4 31.5C43 38.7 44.2 49.5 40.8 56.1C37.3 62.8 29.3 65.1 21.7 66.8C14.1 68.4 7.1 69.3 0 70.2L0 0Z" fill="#17d492"></path></g></svg>